<?xml version="1.0" encoding="UTF-8"?>
<svg version="1.1" viewBox="0 0 809.76 772.43" xml:space="preserve" xmlns="http://www.w3.org/2000/svg" xmlns:cc="http://creativecommons.org/ns#" xmlns:dc="http://purl.org/dc/elements/1.1/" xmlns:rdf="http://www.w3.org/1999/02/22-rdf-syntax-ns#"><metadata><rdf:RDF><cc:Work rdf:about=""><dc:format>image/svg+xml</dc:format><dc:type rdf:resource="http://purl.org/dc/dcmitype/StillImage"/><dc:title/></cc:Work></rdf:RDF></metadata><style type="text/css">
	.st0{fill:none;stroke:#4294D1;stroke-width:4.3151;stroke-linecap:round;stroke-linejoin:round;stroke-miterlimit:10;}
	.st1{fill:none;stroke:#3DA7D7;stroke-width:4.3151;stroke-linecap:round;stroke-linejoin:round;stroke-miterlimit:10;}
	.st2{fill:none;stroke:#3CC3DB;stroke-width:4.3151;stroke-linecap:round;stroke-linejoin:round;stroke-miterlimit:10;}
	.st3{fill:#3CC3DB;}
	.st4{fill:none;stroke:#4294D1;stroke-width:9.7651;stroke-linecap:round;stroke-linejoin:round;stroke-miterlimit:10;}
	.st5{fill:none;stroke:#3DA7D7;stroke-width:9.7651;stroke-linecap:round;stroke-linejoin:round;stroke-miterlimit:10;}
	.st6{fill:none;stroke:#3CC3DB;stroke-width:9.7651;stroke-linecap:round;stroke-linejoin:round;stroke-miterlimit:10;}
	.st7{fill:#006373;}
	.st8{fill:#006C77;}
	.st9{fill:#00555E;}
	.st10{fill:#014C64;}
	.st11{fill:#0297AF;}
	.st12{fill:#00A5BF;}
	.st13{fill:#007E92;}
	.st14{fill:#37B2C8;}
	.st15{fill:#2C94A6;}
	.st16{fill:#32A3B8;}
	.st17{fill:#4CC4D4;}
	.st18{fill:none;stroke:#4294D1;stroke-width:5.0309;stroke-linecap:round;stroke-linejoin:round;stroke-miterlimit:10;}
	.st19{fill:none;stroke:#3DA7D7;stroke-width:5.0309;stroke-linecap:round;stroke-linejoin:round;stroke-miterlimit:10;}
	.st20{fill:none;stroke:#3CC3DB;stroke-width:5.0309;stroke-linecap:round;stroke-linejoin:round;stroke-miterlimit:10;}
	.st21{fill:none;stroke:#4294D1;stroke-width:5.03;stroke-linecap:round;stroke-linejoin:round;stroke-miterlimit:10;}
	.st22{fill:none;stroke:#3DA7D7;stroke-width:5.03;stroke-linecap:round;stroke-linejoin:round;stroke-miterlimit:10;}
	.st23{fill:none;stroke:#3CC3DB;stroke-width:5.03;stroke-linecap:round;stroke-linejoin:round;stroke-miterlimit:10;}
	.st24{fill:none;stroke:#4294D1;stroke-width:2.0617;stroke-linecap:round;stroke-linejoin:round;stroke-miterlimit:10;}
	.st25{fill:none;stroke:#3DA7D7;stroke-width:2.0617;stroke-linecap:round;stroke-linejoin:round;stroke-miterlimit:10;}
	.st26{fill:none;stroke:#3CC3DB;stroke-width:2.0617;stroke-linecap:round;stroke-linejoin:round;stroke-miterlimit:10;}
	.st27{fill:none;stroke:#4294D1;stroke-width:5.0306;stroke-linecap:round;stroke-linejoin:round;stroke-miterlimit:10;}
	.st28{fill:none;stroke:#3DA7D7;stroke-width:5.0306;stroke-linecap:round;stroke-linejoin:round;stroke-miterlimit:10;}
	.st29{fill:none;stroke:#3CC3DB;stroke-width:5.0306;stroke-linecap:round;stroke-linejoin:round;stroke-miterlimit:10;}
	.st30{fill:none;stroke:#4294D1;stroke-width:9.7645;stroke-linecap:round;stroke-linejoin:round;stroke-miterlimit:10;}
	.st31{fill:none;stroke:#3DA7D7;stroke-width:9.7645;stroke-linecap:round;stroke-linejoin:round;stroke-miterlimit:10;}
	.st32{fill:none;stroke:#3CC3DB;stroke-width:9.7645;stroke-linecap:round;stroke-linejoin:round;stroke-miterlimit:10;}
</style><g transform="translate(-135.12 -153.79)" fill="none" stroke-linecap="round" stroke-linejoin="round" stroke-miterlimit="10" stroke-width="9.7645"><g stroke="#4294d1"><rect class="st30" transform="matrix(.5004 -.8658 .8658 .5004 -457.85 616.26)" x="235.27" y="635.07" width="139.55" height="139.55"/><polygon class="st30" points="470.11 800.23 539.94 679.4 400.39 679.34 330.56 800.16"/><polygon class="st30" points="279.55 609.52 209.83 488.63 140 609.45 209.72 730.34"/><polygon class="st30" points="209.89 349.08 140.06 469.91 140 609.45 209.83 488.63"/></g><g stroke="#4294d1"><rect class="st30" transform="matrix(.5004 -.8658 .8658 .5004 62.365 858.39)" x="705.18" y="305.39" width="139.55" height="139.55"/><polygon class="st30" points="609.89 279.77 540.06 400.6 679.61 400.66 749.44 279.84"/><polygon class="st30" points="800.45 470.48 870.17 591.37 940 470.55 870.28 349.66"/><polygon class="st30" points="870.11 730.92 939.94 610.09 940 470.55 870.17 591.37"/></g><g stroke="#3da7d7"><rect class="st31" transform="matrix(.8662 -.4996 .4996 .8662 -58.089 291.08)" x="444.83" y="184.26" width="139.55" height="139.55"/><polygon class="st31" points="349.46 349.29 419.18 470.17 489.01 349.35 419.29 228.47"/><polygon class="st31" points="609.9 279.61 749.45 279.67 679.73 158.79 540.18 158.73"/><polygon class="st31" points="419.18 470.17 540.06 400.45 609.89 279.63 489.01 349.35"/><polygon class="st31" points="870.27 349.5 800.55 228.62 679.73 158.79 749.45 279.67"/></g><g stroke="#3da7d7"><rect class="st31" transform="matrix(.8662 -.4996 .4996 .8662 -337.04 392.96)" x="495.63" y="756.2" width="139.55" height="139.55"/><polygon class="st31" points="730.54 730.71 660.82 609.83 590.99 730.65 660.71 851.53"/><polygon class="st31" points="470.1 800.39 330.55 800.33 400.27 921.21 539.82 921.27"/><polygon class="st31" points="660.82 609.83 539.94 679.55 470.11 800.37 590.99 730.65"/><polygon class="st31" points="209.73 730.5 279.45 851.38 400.27 921.21 330.55 800.33"/></g><g stroke="#3cc3db"><polygon class="st32" points="540.06 400.6 660.88 470.42 800.43 470.48 679.61 400.66"/><rect class="st32" x="730.58" y="591.21" width="139.55" height="139.55"/><polygon class="st32" points="800.43 470.34 660.88 470.28 730.6 591.16 870.15 591.22"/><polygon class="st32" points="730.55 730.73 660.72 851.55 800.27 851.61 870.1 730.79"/><polygon class="st32" points="660.88 470.28 660.82 609.83 730.54 730.71 730.6 591.16"/><polygon class="st32" points="539.84 921.27 679.39 921.33 800.27 851.61 660.72 851.55"/></g><g stroke="#3cc3db"><polygon class="st32" points="539.94 679.4 419.12 609.58 279.57 609.52 400.39 679.34"/><rect class="st32" x="209.87" y="349.24" width="139.55" height="139.55"/><polygon class="st32" points="279.57 609.66 419.12 609.72 349.4 488.84 209.85 488.78"/><polygon class="st32" points="349.45 349.27 419.28 228.45 279.73 228.39 209.9 349.21"/><polygon class="st32" points="419.12 609.72 419.18 470.17 349.46 349.29 349.4 488.84"/><polygon class="st32" points="540.16 158.73 400.61 158.67 279.73 228.39 419.28 228.45"/></g></g></svg>
