<svg width="44" height="44" viewBox="0 0 44 44" fill="none" xmlns="http://www.w3.org/2000/svg"><script xmlns=""/>
<g style="mix-blend-mode:multiply">
<path d="M26.6325 30.1051C33.6669 30.1051 39.3693 24.4027 39.3693 17.3683C39.3693 10.3339 33.6669 4.63156 26.6325 4.63156C19.5981 4.63156 13.8957 10.3339 13.8957 17.3683C13.8957 24.4027 19.5981 30.1051 26.6325 30.1051ZM26.6325 34.7367C17.0405 34.7367 9.26416 26.9603 9.26416 17.3683C9.26416 7.77638 17.0405 0 26.6325 0C36.2245 0 44.0008 7.77638 44.0008 17.3683C44.0008 26.9603 36.2245 34.7367 26.6325 34.7367Z" fill="#35D07F"/>
</g>
<g style="mix-blend-mode:multiply">
<path d="M17.3674 39.3685C24.4018 39.3685 30.1041 33.6662 30.1041 26.6318C30.1041 19.5974 24.4018 13.895 17.3674 13.895C10.333 13.895 4.63058 19.5974 4.63058 26.6318C4.63058 33.6662 10.333 39.3685 17.3674 39.3685ZM17.3674 44.0001C7.77541 44.0001 -0.000976562 36.2237 -0.000976562 26.6318C-0.000976562 17.0398 7.77541 9.26343 17.3674 9.26343C26.9593 9.26343 34.7357 17.0398 34.7357 26.6318C34.7357 36.2237 26.9593 44.0001 17.3674 44.0001Z" fill="#FBCC5C"/>
</g>
</svg>